<svg xmlns="http://www.w3.org/2000/svg" version="1.1" xmlns:xlink="http://www.w3.org/1999/xlink" xmlns:svgjs="http://svgjs.com/svgjs" width="1440" height="560" preserveAspectRatio="none" viewBox="0 0 1440 560"><g mask="url(&quot;#SvgjsMask1000&quot;)" fill="none"><rect width="1440" height="560" x="0" y="0" fill="#0e2a47"></rect><path d="M32.46 140C32.46 122.56 4.94 127.87 0 106.57C-11.29 57.87 -24.97 28.32 0 0C22.01 -24.97 52.39 -13.32 93.95 0C122.39 9.12 114.9 44.87 140 44.87C171.58 44.87 170.44 11.82 207.31 0C240.44 -10.62 243.65 0 280 0C350 0 350 0 420 0C490 0 490 0 560 0C630 0 630 0 700 0C770 0 770 0 840 0C910 0 910 0 980 0C1050 0 1050 0 1120 0C1190 0 1190 0 1260 0C1330 0 1330 0 1400 0C1470 0 1505 -35 1540 0C1575 35 1540 70 1540 140C1540 171.82 1561.27 187.79 1540 203.64C1491.27 239.95 1459.71 260.48 1400 244.31C1342.21 228.66 1355.2 189.14 1305 140C1285.2 120.62 1281.06 107.27 1260 107.27C1242.81 107.27 1237.02 119.47 1228.5 140C1201.17 205.83 1178.05 224.21 1188.29 280C1193.8 310.02 1222.1 303.85 1260 311.61C1327.95 325.52 1342.7 294.28 1400 323.33C1449.61 348.48 1430.98 378.31 1473.82 420C1500.98 446.43 1525.63 429.17 1540 459.57C1558.72 499.17 1565.81 535.59 1540 560C1512.7 585.81 1476.51 577.94 1433.79 560C1406.51 548.54 1420.22 501.2 1400 501.2C1376.11 501.2 1379.41 545.78 1345.56 560C1309.41 575.18 1302.78 560 1260 560C1190 560 1190 560 1120 560C1050 560 1050 560 980 560C925 560 922.62 567.7 870 560C852.62 557.46 854.87 539.51 840 539.51C825.64 539.51 828.28 557.55 811.53 560C758.28 567.79 755.76 560 700 560C632.86 560 632.11 562.14 565.71 560C562.11 559.88 562.95 555.48 560 555.48C556.68 555.48 557.23 559.87 553.17 560C487.23 562.13 486.59 560 420 560C350 560 350 560 280 560C233.8 560 231.2 569.15 187.6 560C161.2 554.46 163.61 530.62 140 530.62C117.35 530.62 120.34 554.7 95.09 560C50.34 569.39 21.57 585.98 0 560C-25.98 528.7 -6.17 500.99 0 445.45C1.61 430.99 15.56 432.57 15.56 420C15.56 408.18 1.51 410.23 0 396.67C-6.27 340.23 0 338.34 0 280C0 230 -10.71 226.2 0 180C5.52 156.2 32.46 159.28 32.46 140" stroke="rgba(51, 121, 194, 0.58)" stroke-width="2"></path><path d="M140 259.68C125.39 259.68 114.29 270.34 114.29 280C114.29 289.13 125.79 297.26 140 297.26C168.65 297.26 200 289.33 200 280C200 270.54 168.24 259.68 140 259.68" stroke="rgba(51, 121, 194, 0.58)" stroke-width="2"></path><path d="M420 262.05C401.82 262.05 378.82 272.81 378.82 280C378.82 286.78 400.45 290 420 290C427.64 290 433.21 285.96 433.21 280C433.21 271.98 429.02 262.05 420 262.05" stroke="rgba(51, 121, 194, 0.58)" stroke-width="2"></path><path d="M280 344.62C267.51 344.62 254.87 383.7 254.87 420C254.87 442.24 267.49 461.7 280 461.7C292.46 461.7 304.81 442.21 304.81 420C304.81 383.67 292.48 344.62 280 344.62" stroke="rgba(51, 121, 194, 0.58)" stroke-width="2"></path><path d="M980 326.67C964.58 326.67 953.95 375.55 953.95 420C953.95 440.88 965.4 457.33 980 457.33C996.79 457.33 1016.72 442.41 1016.72 420C1016.72 377.08 995.96 326.67 980 326.67" stroke="rgba(51, 121, 194, 0.58)" stroke-width="2"></path><path d="M47.89 0C47.89 16.35 13.68 54.33 0 54.33C-10.26 54.33 -12.73 14.44 0 0C11.22 -12.73 47.89 -10.81 47.89 0" stroke="rgba(51, 121, 194, 0.58)" stroke-width="2"></path><path d="M936.92 140C936.92 113.19 951.38 103.28 980 84C1042.92 41.61 1051.78 52.95 1120 16.67C1130.76 10.95 1126.25 1.39 1137.95 0C1196.25 -6.94 1198.97 0 1260 0C1330 0 1330 0 1400 0C1456.95 0 1496.44 -30.88 1513.9 0C1536.01 39.12 1514.68 85.16 1479.13 140C1457.73 173 1435.87 175.69 1400 175.69C1380.05 175.69 1386.15 155.17 1367.5 140C1316.15 98.23 1310.31 61.82 1260 61.82C1218.93 61.82 1215.4 95.88 1184.75 140C1145.4 196.64 1167.56 252.92 1120 263.33C1065.19 275.32 1045.99 229.25 980 184.8C954.45 167.59 936.92 163.59 936.92 140" stroke="rgba(51, 121, 194, 0.58)" stroke-width="2"></path><path d="M0 242.5C12.92 242.5 42.86 260.43 42.86 280C42.86 301.05 12.5 323.75 0 323.75C-8.93 323.75 0 301.88 0 280C0 261.25 -8.51 242.5 0 242.5" stroke="rgba(51, 121, 194, 0.58)" stroke-width="2"></path><path d="M64.17 420C64.17 383.59 102.83 345.21 140 345.21C175.75 345.21 210 383.51 210 420C210 454.61 175.67 487.41 140 487.41C102.76 487.41 64.17 454.69 64.17 420" stroke="rgba(51, 121, 194, 0.58)" stroke-width="2"></path><path d="M1074.1 420C1107.3 370.76 1077.86 324.04 1120 308C1170.81 288.66 1191.26 325.03 1260 349.25C1331.26 374.36 1332.4 374.82 1400 406.67C1407.49 410.2 1410.18 413.55 1410.18 420C1410.18 425.82 1405.14 425.64 1400 431.2C1340.42 495.64 1343.34 502.41 1280.74 560C1273.34 566.81 1270.37 560 1260 560C1190 560 1190 560 1120 560C1050 560 1050 560 980 560C956.25 560 932.5 569.36 932.5 560C932.5 547.2 956.9 538.51 980 515.67C1027.7 468.51 1037.3 474.59 1074.1 420" stroke="rgba(51, 121, 194, 0.58)" stroke-width="2"></path><path d="M0 525C8.21 525 29.06 549.32 29.06 560C29.06 566.82 6.59 567.94 0 560C-7.94 550.44 -6.32 525 0 525" stroke="rgba(51, 121, 194, 0.58)" stroke-width="2"></path><path d="M1474.02 560C1474.02 541.93 1520.45 497.61 1540 497.61C1553.44 497.61 1556.03 544.84 1540 560C1523.04 576.03 1474.02 573.13 1474.02 560" stroke="rgba(51, 121, 194, 0.58)" stroke-width="2"></path><path d="M133.91 140C133.91 137.14 136.13 134.62 140 134.62C160.17 134.62 182 136.97 182 140C182 143.04 159.81 146.77 140 146.77C135.76 146.77 133.91 143.21 133.91 140" stroke="rgba(51, 121, 194, 0.58)" stroke-width="2"></path><path d="M1.84 0C1.84 0.63 0.53 2.09 0 2.09C-0.39 2.09 -0.49 0.56 0 0C0.43 -0.49 1.84 -0.42 1.84 0" stroke="rgba(51, 121, 194, 0.58)" stroke-width="2"></path><path d="M560 57.93C536.26 57.93 514.59 17.91 514.59 0C514.59 -11.05 537.3 0 560 0C586.25 0 612.5 -11.64 612.5 0C612.5 17.33 585.22 57.93 560 57.93" stroke="rgba(51, 121, 194, 0.58)" stroke-width="2"></path><path d="M685.26 140C685.26 133.79 693.93 127.27 700 127.27C704.41 127.27 706.22 133.69 706.22 140C706.22 145.89 704.33 151.67 700 151.67C693.85 151.67 685.26 145.99 685.26 140" stroke="rgba(51, 121, 194, 0.58)" stroke-width="2"></path><path d="M1062.07 140C1062.07 120 1095.96 100 1120 100C1135.43 100 1141 120 1141 140C1141 160 1135.43 180 1120 180C1095.96 180 1062.07 160 1062.07 140" stroke="rgba(51, 121, 194, 0.58)" stroke-width="2"></path><path d="M1260 16.36C1244.03 7.83 1227.69 4.32 1227.69 0C1227.69 -3.86 1243.85 0 1260 0C1330 0 1330 0 1400 0C1427.29 0 1454.58 -15.54 1454.58 0C1454.58 30.46 1439.11 88.71 1400 92C1341.82 96.89 1330.18 53.83 1260 16.36" stroke="rgba(51, 121, 194, 0.58)" stroke-width="2"></path><path d="M112.78 420C112.78 406.93 126.66 393.15 140 393.15C152.83 393.15 165.13 406.9 165.13 420C165.13 432.43 152.81 444.2 140 444.2C126.63 444.2 112.78 432.45 112.78 420" stroke="rgba(51, 121, 194, 0.58)" stroke-width="2"></path><path d="M393.42 420C393.42 402.26 403.69 401.42 420 390C486.98 343.09 486.29 313.43 560 303.33C626.29 294.25 628.36 334.35 700 351.63C768.36 368.12 779.11 346.76 840 370.88C865.39 380.94 872.56 396.88 872.56 420C872.56 438.51 859.14 440.56 840 454.15C772.86 501.81 768.66 545.34 700 542.5C628.66 539.55 634.41 453.67 560 442.58C494.41 432.8 473.36 508 420 500.77C390.07 496.71 393.42 457.64 393.42 420" stroke="rgba(51, 121, 194, 0.58)" stroke-width="2"></path><path d="M1145.93 420C1145.93 394.15 1204.21 386.88 1260 386.88C1297.06 386.88 1331.63 396.16 1331.63 420C1331.63 452.21 1300.35 498.97 1260 498.97C1207.5 498.97 1145.93 450.19 1145.93 420" stroke="rgba(51, 121, 194, 0.58)" stroke-width="2"></path><path d="M1514.25 560C1514.25 552.95 1532.37 535.65 1540 535.65C1545.24 535.65 1546.26 554.08 1540 560C1533.38 566.26 1514.25 565.12 1514.25 560" stroke="rgba(51, 121, 194, 0.58)" stroke-width="2"></path></g><defs><mask id="SvgjsMask1000"><rect width="1440" height="560" fill="#ffffff"></rect></mask></defs></svg>