<svg xmlns="http://www.w3.org/2000/svg" version="1.1" xmlns:xlink="http://www.w3.org/1999/xlink" xmlns:svgjs="http://svgjs.com/svgjs" width="1440" height="560" preserveAspectRatio="none" viewBox="0 0 1440 560"><g mask="url(&quot;#SvgjsMask1000&quot;)" fill="none"><rect width="1440" height="560" x="0" y="0" fill="#0e2a47"></rect><path d="M 0,30 C 57.6,67.4 172.8,210.8 288,217 C 403.2,223.2 460.8,51.2 576,61 C 691.2,70.8 748.8,270.2 864,266 C 979.2,261.8 1036.8,60.6 1152,40 C 1267.2,19.4 1382.4,138.4 1440,163L1440 560L0 560z" fill="#184a7e"></path><path d="M 0,558 C 96,511 288,339.8 480,323 C 672,306.2 768,466.4 960,474 C 1152,481.6 1344,383.6 1440,361L1440 560L0 560z" fill="#2264ab"></path></g><defs><mask id="SvgjsMask1000"><rect width="1440" height="560" fill="#ffffff"></rect></mask></defs></svg>