<svg width="279" height="256" viewBox="0 0 279 256" fill="none" xmlns="http://www.w3.org/2000/svg">
<path d="M109.5 28H77.5008C12.3006 28 11.5 128 77.5007 128C129.501 128 154 128 197.5 128C268.5 128 268.5 227.394 197.5 227.394L190.5 228.394" stroke="url(#paint0_linear_311_28)" stroke-width="55"/>
<path d="M72 28H118" stroke="#E86F4A" stroke-width="55"/>
<path d="M87 176V228H198" stroke="#3358EB" stroke-width="55"/>
<path fill-rule="evenodd" clip-rule="evenodd" d="M253.969 104.8C257.184 96.0109 258.749 86.7843 258.749 77.6972C258.749 58.8773 252.036 39.4588 237.85 24.5644C223.32 9.30889 202.574 0.5 178 0.5H177.944H177.888H177.832H177.775H177.718H177.661H177.604H177.546H177.489H177.431H177.372H177.314H177.255H177.196H177.137H177.078H177.018H176.958H176.898H176.838H176.777H176.717H176.656H176.594H176.533H176.471H176.41H176.347H176.285H176.223H176.16H176.097H176.034H175.971H175.907H175.844H175.78H175.715H175.651H175.587H175.522H175.457H175.392H175.327H175.261H175.196H175.13H175.064H174.997H174.931H174.864H174.798H174.731H174.664H174.596H174.529H174.461H174.393H174.325H174.257H174.189H174.12H174.052H173.983H173.914H173.845H173.776H173.706H173.637H173.567H173.497H173.427H173.357H173.286H173.216H173.145H173.074H173.003H172.932H172.861H172.79H172.718H172.646H172.575H172.503H172.431H172.359H172.286H172.214H172.141H172.069H171.996H171.923H171.85H171.777H171.703H171.63H171.556H171.483H171.409H171.335H171.261H171.187H171.113H171.039H170.964H170.89H170.815H170.741H170.666H170.591H170.516H170.441H170.366H170.29H170.215H170.14H170.064H169.988H169.913H169.837H169.761H169.685H169.609H169.533H169.457H169.381H169.304H169.228H169.151H169.075H168.998H168.922H168.845H168.768H168.691H168.614H168.537H168.46H168.383H168.306H168.229H168.152H168.074H167.997H167.92H167.842H167.765H167.687H167.61H167.532H167.454H167.377H167.299H167.221H167.144H167.066H166.988H166.91H166.832H166.754H166.676H166.598H166.52H166.442H166.364H166.286H166.208H166.13H166.052H165.974H165.895H165.817H165.739H165.661H165.583H165.505H165.427H165.348H165.27H165.192H165.114H165.036H164.958H164.879H164.801H164.723H164.645H164.567H164.489H164.411H164.333H164.255H164.177H164.099H164.021H163.943H163.865H163.787H163.709H163.631H163.553H163.476H163.398H163.32H163.242H163.165H163.087H163.01H162.932H162.855H162.777H162.7H162.623H162.545H162.468H162.391H162.314H162.237H162.16H162.083H162.006H161.929H161.852H161.776H161.699H161.622H161.546H161.47H161.393H161.317H161.241H161.165H161.088H161.012H160.937H160.861H160.785H160.709H160.634H160.558H160.483H160.408H160.332H160.257H160.182H160.107H160.032H159.958H159.883H159.808H159.734H159.66H159.585H159.511H159.437H159.363H159.29H159.216H159.142H159.069H158.995H158.922H158.849H158.776H158.703H158.63H158.558H158.485H158.413H158.341H158.269H158.197H158.125H158.053H157.981H157.91H157.839H157.767H157.696H157.626H157.555H157.484H157.414H157.343H157.273H157.203H157.133H157.064H156.994H156.925H156.856H156.787H156.718H156.649H156.58H156.512H156.444H156.376H156.308H156.24H156.172H156.105H156.038H155.971H155.904H155.837H155.771H155.704H155.638H155.572H155.506H155.441H155.375H155.31H155.245H155.18H155.116H155.051H154.987H154.923H154.859H154.796H154.732H154.669H154.606H154.543H154.481H154.418H154.356H154.294H154.232H154.171H154.109H154.048H153.987H153.927H153.866H153.806H153.746H153.686H153.627H153.568H153.509H153.45H153.391H153.333H153.275H153.217H153.159H153.102H153.044H152.988H152.931H152.874H152.818H152.762H152.707H152.651H152.596H152.541H152.486H152.432H152.378H152.324H152.27H152.217H152.164H152.111H152.058H152.006H151.954H151.902H151.851H151.8H151.749H151.698H151.648H151.598H151.548H151.498H151.449H151.4H151.351H151.303H151.255H151.207H151.16H151.113H151.066H151.019H150.973H150.927H150.881H150.836H150.79H150.746H150.701H150.657H150.613H150.57H150.526H150.483H150.441H150.398H150.356H150.315H150.273H150.232H150.192H150.151H150.111H150.072H150.032H149.993H149.954H149.916H149.878H149.84H149.803H149.766H149.729H149.693H149.657H149.621H149.586H149.551H149.516H149.482H149.448H149.414H149.381H149.348H149.316H149.284H149.252H149.221H149.19H149.159H149.129H149.099H149.069H149.04H149.011H148.983H148.954H148.927H148.899H148.872H148.846H148.82H148.794H148.768H148.743H148.719H148.694H148.671H148.647H148.624H148.601H148.579H148.557H148.536H148.515H148.494H148.474H148.454H148.434H148.415H148.396H148.378H148.36H148.343H148.326H148.309H148.293H148.277H148.262H148.247H148.233H148.218H148.205H148.192H148.179H148.166H148.154H148.143H148.132H148.121H148.111H148.101H148.092H148.083H148.075H148.067H148.059H148.052H148.045H148.039H148.033H148.028H148.023H148.019H148.015H148.011H148.008H148.006H148.004H148.002H148.001H148C148 0.5 148 0.5 148 28C148 55.5 148 55.5 148 55.5H148.001H148.002H148.004H148.006H148.008H148.011H148.015H148.019H148.023H148.028H148.033H148.039H148.045H148.052H148.059H148.067H148.075H148.083H148.092H148.101H148.111H148.121H148.132H148.143H148.154H148.166H148.179H148.192H148.205H148.218H148.233H148.247H148.262H148.277H148.293H148.309H148.326H148.343H148.36H148.378H148.396H148.415H148.434H148.454H148.474H148.494H148.515H148.536H148.557H148.579H148.601H148.624H148.647H148.671H148.694H148.719H148.743H148.768H148.794H148.82H148.846H148.872H148.899H148.927H148.954H148.983H149.011H149.04H149.069H149.099H149.129H149.159H149.19H149.221H149.252H149.284H149.316H149.348H149.381H149.414H149.448H149.482H149.516H149.551H149.586H149.621H149.657H149.693H149.729H149.766H149.803H149.84H149.878H149.916H149.954H149.993H150.032H150.072H150.111H150.151H150.192H150.232H150.273H150.315H150.356H150.398H150.441H150.483H150.526H150.57H150.613H150.657H150.701H150.746H150.79H150.836H150.881H150.927H150.973H151.019H151.066H151.113H151.16H151.207H151.255H151.303H151.351H151.4H151.449H151.498H151.548H151.598H151.648H151.698H151.749H151.8H151.851H151.902H151.954H152.006H152.058H152.111H152.164H152.217H152.27H152.324H152.378H152.432H152.486H152.541H152.596H152.651H152.707H152.762H152.818H152.874H152.931H152.988H153.044H153.102H153.159H153.217H153.275H153.333H153.391H153.45H153.509H153.568H153.627H153.686H153.746H153.806H153.866H153.927H153.987H154.048H154.109H154.171H154.232H154.294H154.356H154.418H154.481H154.543H154.606H154.669H154.732H154.796H154.859H154.923H154.987H155.051H155.116H155.18H155.245H155.31H155.375H155.441H155.506H155.572H155.638H155.704H155.771H155.837H155.904H155.971H156.038H156.105H156.172H156.24H156.308H156.376H156.444H156.512H156.58H156.649H156.718H156.787H156.856H156.925H156.994H157.064H157.133H157.203H157.273H157.343H157.414H157.484H157.555H157.626H157.696H157.767H157.839H157.91H157.981H158.053H158.125H158.197H158.269H158.341H158.413H158.485H158.558H158.63H158.703H158.776H158.849H158.922H158.995H159.069H159.142H159.216H159.29H159.363H159.437H159.511H159.585H159.66H159.734H159.808H159.883H159.958H160.032H160.107H160.182H160.257H160.332H160.408H160.483H160.558H160.634H160.709H160.785H160.861H160.937H161.012H161.088H161.165H161.241H161.317H161.393H161.47H161.546H161.622H161.699H161.776H161.852H161.929H162.006H162.083H162.16H162.237H162.314H162.391H162.468H162.545H162.623H162.7H162.777H162.855H162.932H163.01H163.087H163.165H163.242H163.32H163.398H163.476H163.553H163.631H163.709H163.787H163.865H163.943H164.021H164.099H164.177H164.255H164.333H164.411H164.489H164.567H164.645H164.723H164.801H164.879H164.958H165.036H165.114H165.192H165.27H165.348H165.427H165.505H165.583H165.661H165.739H165.817H165.895H165.974H166.052H166.13H166.208H166.286H166.364H166.442H166.52H166.598H166.676H166.754H166.832H166.91H166.988H167.066H167.144H167.221H167.299H167.377H167.454H167.532H167.61H167.687H167.765H167.842H167.92H167.997H168.074H168.152H168.229H168.306H168.383H168.46H168.537H168.614H168.691H168.768H168.845H168.922H168.998H169.075H169.151H169.228H169.304H169.381H169.457H169.533H169.609H169.685H169.761H169.837H169.913H169.988H170.064H170.14H170.215H170.29H170.366H170.441H170.516H170.591H170.666H170.741H170.815H170.89H170.964H171.039H171.113H171.187H171.261H171.335H171.409H171.483H171.556H171.63H171.703H171.777H171.85H171.923H171.996H172.069H172.141H172.214H172.286H172.359H172.431H172.503H172.575H172.646H172.718H172.79H172.861H172.932H173.003H173.074H173.145H173.216H173.286H173.357H173.427H173.497H173.567H173.637H173.706H173.776H173.845H173.914H173.983H174.052H174.12H174.189H174.257H174.325H174.393H174.461H174.529H174.596H174.664H174.731H174.798H174.864H174.931H174.997H175.064H175.13H175.196H175.261H175.327H175.392H175.457H175.522H175.587H175.651H175.715H175.78H175.844H175.907H175.971H176.034H176.097H176.16H176.223H176.285H176.347H176.41H176.471H176.533H176.594H176.656H176.717H176.777H176.838H176.898H176.958H177.018H177.078H177.137H177.196H177.255H177.314H177.372H177.431H177.489H177.546H177.604H177.661H177.718H177.775H177.832H177.888H177.944H178C188.925 55.5 194.803 59.1154 198.024 62.4964C201.588 66.2385 203.749 71.6685 203.749 77.6972C203.749 81.4722 202.902 85.0124 201.393 88.0505C221.322 88.6455 239.294 94.489 253.969 104.8Z" fill="#3358EB"/>
<defs>
<linearGradient id="paint0_linear_311_28" x1="18.5" y1="109.5" x2="271" y2="109.5" gradientUnits="userSpaceOnUse">
<stop offset="0.223958" stop-color="#E86F4A"/>
<stop offset="0.463542" stop-color="#BA6973"/>
<stop offset="0.691089" stop-color="#3358EB"/>
</linearGradient>
</defs>
</svg>
