<svg width="278" height="256" viewBox="0 0 278 256" fill="none" xmlns="http://www.w3.org/2000/svg">
<path fill-rule="evenodd" clip-rule="evenodd" d="M252.969 104.8C256.185 96.0109 257.75 86.7843 257.75 77.6972C257.75 58.8773 251.036 39.4588 236.851 24.5644C222.321 9.30889 201.575 0.5 177 0.5H176.944H176.888H176.832H176.775H176.719H176.662H176.604H176.547H176.489H176.431H176.373H176.314H176.256H176.197H176.137H176.078H176.018H175.959H175.899H175.838H175.778H175.717H175.656H175.595H175.533H175.472H175.41H175.348H175.286H175.223H175.16H175.097H175.034H174.971H174.908H174.844H174.78H174.716H174.652H174.587H174.522H174.457H174.392H174.327H174.262H174.196H174.13H174.064H173.998H173.931H173.865H173.798H173.731H173.664H173.597H173.529H173.462H173.394H173.326H173.258H173.189H173.121H173.052H172.983H172.914H172.845H172.776H172.706H172.637H172.567H172.497H172.427H172.357H172.287H172.216H172.145H172.075H172.004H171.933H171.861H171.79H171.718H171.647H171.575H171.503H171.431H171.359H171.287H171.214H171.142H171.069H170.996H170.923H170.85H170.777H170.704H170.63H170.557H170.483H170.409H170.336H170.262H170.187H170.113H170.039H169.965H169.89H169.816H169.741H169.666H169.591H169.516H169.441H169.366H169.291H169.215H169.14H169.064H168.989H168.913H168.837H168.761H168.685H168.609H168.533H168.457H168.381H168.305H168.228H168.152H168.075H167.999H167.922H167.845H167.768H167.692H167.615H167.538H167.461H167.384H167.307H167.229H167.152H167.075H166.997H166.92H166.843H166.765H166.688H166.61H166.532H166.455H166.377H166.299H166.222H166.144H166.066H165.988H165.91H165.832H165.754H165.676H165.599H165.52H165.442H165.364H165.286H165.208H165.13H165.052H164.974H164.896H164.818H164.74H164.661H164.583H164.505H164.427H164.349H164.271H164.192H164.114H164.036H163.958H163.88H163.802H163.723H163.645H163.567H163.489H163.411H163.333H163.255H163.177H163.099H163.021H162.943H162.865H162.787H162.709H162.632H162.554H162.476H162.398H162.32H162.243H162.165H162.088H162.01H161.933H161.855H161.778H161.7H161.623H161.546H161.468H161.391H161.314H161.237H161.16H161.083H161.006H160.929H160.853H160.776H160.699H160.623H160.546H160.47H160.394H160.317H160.241H160.165H160.089H160.013H159.937H159.861H159.785H159.71H159.634H159.559H159.483H159.408H159.333H159.258H159.183H159.108H159.033H158.958H158.883H158.809H158.734H158.66H158.586H158.512H158.438H158.364H158.29H158.216H158.143H158.069H157.996H157.923H157.849H157.776H157.704H157.631H157.558H157.486H157.413H157.341H157.269H157.197H157.125H157.053H156.982H156.91H156.839H156.768H156.697H156.626H156.555H156.485H156.414H156.344H156.274H156.204H156.134H156.064H155.995H155.925H155.856H155.787H155.718H155.649H155.581H155.512H155.444H155.376H155.308H155.24H155.173H155.105H155.038H154.971H154.904H154.837H154.771H154.705H154.639H154.573H154.507H154.441H154.376H154.311H154.246H154.181H154.116H154.052H153.987H153.923H153.86H153.796H153.733H153.669H153.606H153.544H153.481H153.419H153.356H153.294H153.233H153.171H153.11H153.049H152.988H152.927H152.867H152.806H152.746H152.687H152.627H152.568H152.509H152.45H152.391H152.333H152.275H152.217H152.159H152.102H152.045H151.988H151.931H151.875H151.819H151.763H151.707H151.651H151.596H151.541H151.487H151.432H151.378H151.324H151.271H151.217H151.164H151.111H151.059H151.007H150.954H150.903H150.851H150.8H150.749H150.698H150.648H150.598H150.548H150.499H150.449H150.4H150.352H150.303H150.255H150.208H150.16H150.113H150.066H150.019H149.973H149.927H149.881H149.836H149.791H149.746H149.701H149.657H149.613H149.57H149.527H149.484H149.441H149.399H149.357H149.315H149.274H149.233H149.192H149.152H149.112H149.072H149.033H148.993H148.955H148.916H148.878H148.841H148.803H148.766H148.729H148.693H148.657H148.621H148.586H148.551H148.517H148.482H148.448H148.415H148.382H148.349H148.316H148.284H148.252H148.221H148.19H148.159H148.129H148.099H148.069H148.04H148.011H147.983H147.955H147.927H147.9H147.873H147.846H147.82H147.794H147.769H147.744H147.719H147.695H147.671H147.647H147.624H147.602H147.579H147.557H147.536H147.515H147.494H147.474H147.454H147.435H147.415H147.397H147.379H147.361H147.343H147.326H147.31H147.293H147.278H147.262H147.247H147.233H147.219H147.205H147.192H147.179H147.167H147.155H147.143H147.132H147.122H147.111H147.102H147.092H147.083H147.075H147.067H147.059H147.052H147.046H147.039H147.034H147.028H147.024H147.019H147.015H147.012H147.009H147.006H147.004H147.002H147.001H147.001C147 0.5 147 0.5 147 28C147 55.5 147 55.5 147.001 55.5H147.001H147.002H147.004H147.006H147.009H147.012H147.015H147.019H147.024H147.028H147.034H147.039H147.046H147.052H147.059H147.067H147.075H147.083H147.092H147.102H147.111H147.122H147.132H147.143H147.155H147.167H147.179H147.192H147.205H147.219H147.233H147.247H147.262H147.278H147.293H147.31H147.326H147.343H147.361H147.379H147.397H147.415H147.435H147.454H147.474H147.494H147.515H147.536H147.557H147.579H147.602H147.624H147.647H147.671H147.695H147.719H147.744H147.769H147.794H147.82H147.846H147.873H147.9H147.927H147.955H147.983H148.011H148.04H148.069H148.099H148.129H148.159H148.19H148.221H148.252H148.284H148.316H148.349H148.382H148.415H148.448H148.482H148.517H148.551H148.586H148.621H148.657H148.693H148.729H148.766H148.803H148.841H148.878H148.916H148.955H148.993H149.033H149.072H149.112H149.152H149.192H149.233H149.274H149.315H149.357H149.399H149.441H149.484H149.527H149.57H149.613H149.657H149.701H149.746H149.791H149.836H149.881H149.927H149.973H150.019H150.066H150.113H150.16H150.208H150.255H150.303H150.352H150.4H150.449H150.499H150.548H150.598H150.648H150.698H150.749H150.8H150.851H150.903H150.954H151.007H151.059H151.111H151.164H151.217H151.271H151.324H151.378H151.432H151.487H151.541H151.596H151.651H151.707H151.763H151.819H151.875H151.931H151.988H152.045H152.102H152.159H152.217H152.275H152.333H152.391H152.45H152.509H152.568H152.627H152.687H152.746H152.806H152.867H152.927H152.988H153.049H153.11H153.171H153.233H153.294H153.356H153.419H153.481H153.544H153.606H153.669H153.733H153.796H153.86H153.923H153.987H154.052H154.116H154.181H154.246H154.311H154.376H154.441H154.507H154.573H154.639H154.705H154.771H154.837H154.904H154.971H155.038H155.105H155.173H155.24H155.308H155.376H155.444H155.512H155.581H155.649H155.718H155.787H155.856H155.925H155.995H156.064H156.134H156.204H156.274H156.344H156.414H156.485H156.555H156.626H156.697H156.768H156.839H156.91H156.982H157.053H157.125H157.197H157.269H157.341H157.413H157.486H157.558H157.631H157.704H157.776H157.849H157.923H157.996H158.069H158.143H158.216H158.29H158.364H158.438H158.512H158.586H158.66H158.734H158.809H158.883H158.958H159.033H159.108H159.183H159.258H159.333H159.408H159.483H159.559H159.634H159.71H159.785H159.861H159.937H160.013H160.089H160.165H160.241H160.317H160.394H160.47H160.546H160.623H160.699H160.776H160.853H160.929H161.006H161.083H161.16H161.237H161.314H161.391H161.468H161.546H161.623H161.7H161.778H161.855H161.933H162.01H162.088H162.165H162.243H162.32H162.398H162.476H162.554H162.632H162.709H162.787H162.865H162.943H163.021H163.099H163.177H163.255H163.333H163.411H163.489H163.567H163.645H163.723H163.802H163.88H163.958H164.036H164.114H164.192H164.271H164.349H164.427H164.505H164.583H164.661H164.74H164.818H164.896H164.974H165.052H165.13H165.208H165.286H165.364H165.442H165.52H165.599H165.676H165.754H165.832H165.91H165.988H166.066H166.144H166.222H166.299H166.377H166.455H166.532H166.61H166.688H166.765H166.843H166.92H166.997H167.075H167.152H167.229H167.307H167.384H167.461H167.538H167.615H167.692H167.768H167.845H167.922H167.999H168.075H168.152H168.228H168.305H168.381H168.457H168.533H168.609H168.685H168.761H168.837H168.913H168.989H169.064H169.14H169.215H169.291H169.366H169.441H169.516H169.591H169.666H169.741H169.816H169.89H169.965H170.039H170.113H170.187H170.262H170.336H170.409H170.483H170.557H170.63H170.704H170.777H170.85H170.923H170.996H171.069H171.142H171.214H171.287H171.359H171.431H171.503H171.575H171.647H171.718H171.79H171.861H171.933H172.004H172.075H172.145H172.216H172.287H172.357H172.427H172.497H172.567H172.637H172.706H172.776H172.845H172.914H172.983H173.052H173.121H173.189H173.258H173.326H173.394H173.462H173.529H173.597H173.664H173.731H173.798H173.865H173.931H173.998H174.064H174.13H174.196H174.262H174.327H174.392H174.457H174.522H174.587H174.652H174.716H174.78H174.844H174.908H174.971H175.034H175.097H175.16H175.223H175.286H175.348H175.41H175.472H175.533H175.595H175.656H175.717H175.778H175.838H175.899H175.959H176.018H176.078H176.137H176.197H176.256H176.314H176.373H176.431H176.489H176.547H176.604H176.662H176.719H176.775H176.832H176.888H176.944H177C187.925 55.5 193.804 59.1154 197.024 62.4964C200.588 66.2385 202.75 71.6685 202.75 77.6972C202.75 81.4722 201.902 85.0124 200.393 88.0505C220.323 88.6455 238.294 94.489 252.969 104.8Z" fill="#3358EB"/>
<path d="M109 28H77.0004C11.8002 28 10.9996 128 77.0004 128C129 128 153.5 128 197 128C268 128 268 227.394 197 227.394" stroke="url(#paint0_linear_311_18)" stroke-width="55"/>
<path d="M71.4996 28H117.5" stroke="#E86F4A" stroke-width="55"/>
<path d="M17 228H94.4996H197.5" stroke="#3358EB" stroke-width="55"/>
<defs>
<linearGradient id="paint0_linear_311_18" x1="17.9996" y1="109.5" x2="270.5" y2="109.5" gradientUnits="userSpaceOnUse">
<stop offset="0.223958" stop-color="#E86F4A"/>
<stop offset="0.458333" stop-color="#BA6973"/>
<stop offset="0.691089" stop-color="#3358EB"/>
</linearGradient>
</defs>
</svg>
